PathFileType	4	(X/Y/Z)	C:/Users/beibeiliu/ov580/test_trc/User2\sequence.38_training_dense_left.trc
DataRate	CameraRate	NumFrames	NumMarkers	Units	OrigDataRate	OrigDataStartFrame	OrigNumFrames
120	120	24	19	mm	120	1	94
Frame#	Time	ThumbCMC			ThumbMCP			ThumbIP			ThumbTip			IndexMCP			IndexPIP			IndexTip			MiddleMCP			MiddlePIP			MiddleTip			RingMCP			RingPIP			RingTip			PinkyMCP			PinkyPIP			PinkyTip			BackHand1			BackHand2			BackHand3	
		X0	Y0	Z0	X1	Y1	Z1	X2	Y2	Z2	X3	Y3	Z3	X4	Y4	Z4	X5	Y5	Z5	X6	Y6	Z6	X7	Y7	Z7	X8	Y8	Z8	X9	Y9	Z9	X10	Y10	Z10	X11	Y11	Z11	X12	Y12	Z12	X13	Y13	Z13	X14	Y14	Z14	X15	Y15	Z15	X16	Y16	Z16	X17	Y17	Z17	X18	Y18	Z18	
0	0	-208.838	57.6331	30.5924	-174.92	49.9198	26.6851	-140.988	50.2002	16.6937	-115.882	49.9947	12.1915	-204.424	19.5292	-46.195	-187.54	12.8339	-65.907	-171.588	1.51369	-91.6911	-195.102	-9.51403	-36.0133	-163.899	-24.7283	-36.9996	-133.388	-36.765	-25.9425	-189.268	-25.0596	-10.6168	-169.65	-21.172	11.3955	-185.69	2.04616	35.4069	-198.642	-36.4783	10.1166	-185.748	-20.2711	32.7633	-206.553	4.69093	41.456	-249.668	-3.91875	2.43438	-268.501	11.3481	35.6876	-247.912	36.1491	10.2999	
1	0.00833333	-227.937	62.2233	23.4589	-194.305	71.607	19.6354	-163.447	76.9076	10.7446	-138.091	88.2928	6.37775	-204.083	23.4088	-48.4091	-183.884	19.6459	-68.9002	-164.729	13.2819	-89.6863	-182.327	4.36279	-34.4259	-152.581	3.7181	-32.474	-118.442	5.72848	-17.9537	-176.211	-10.4915	-6.05717	-161.17	8.44694	14.3599	-191.335	25.3085	36.1801	-183.987	-18.5664	11.7746	-179.45	7.15829	38.3135	-207.029	17.3083	43.8734	-240.615	-11.6849	6.11795	-264.376	-1.38825	30.0437	-253.034	27.8677	4.62264	
2	0.0166667	-242.423	63.2047	20.5756	-214.241	80.6648	15.7223	-182.152	99.3037	1.64986	-166.763	111.396	0.358963	-203.459	33.7769	-54.1552	-185.052	30.8228	-68.5151	-166.729	32.6889	-89.3624	-179.862	17.4845	-33.2155	-148.296	30.3069	-31.3695	-120.373	45.6631	-19.8895	-171.284	13.3088	-8.55462	-162.978	36.3359	17.366	-194.372	40.1071	34.4359	-170.564	1.58218	13.5055	-176.849	26.8519	37.2947	-207.617	25.9278	39.1414	-228.35	-12.1941	5.74108	-253.845	-6.81346	29.707	-254.211	20.6516	5.09072	
3	0.025	-250.04	61.5575	12.8545	-226.913	82.3359	8.54088	-204.689	106.089	-4.45954	-194.017	124.384	-7.45245	-205.129	33.3627	-53.6398	-187.756	38.1267	-74.9904	-167.788	36.7928	-87.9372	-181.01	28.5209	-35.0949	-149.408	49.1652	-33.7294	-126.764	70.1337	-21.6863	-167.935	30.4132	-8.76997	-166.735	53.3212	15.0518	-196.385	53.4391	29.4806	-169.276	18.4346	10.3877	-179.165	44.7286	30.9098	-209.289	34.0712	37.1771	-216.525	-8.39063	4.98308	-241.394	-13.7445	31.587	-250.72	14.9556	1.72163	
4	0.0333333	-259.944	50.8556	14.1408	-242.98	80.2632	-0.441055	-229.946	107.226	-15.3234	-222.365	127.541	-22.8426	-218.095	30.7185	-56.6077	-201.575	34.7746	-75.8841	-184.584	38.9757	-97.5211	-185.163	34.5979	-45.2458	-161.485	60.2112	-46.5907	-144.041	83.0598	-40.0417	-171.981	37.1896	-11.4428	-178.762	65.422	6.81834	-207.789	54.2811	24.7182	-167.637	30.9851	8.75086	-184.885	54.0649	22.0745	-212.035	37.3676	32.4292	-212.779	-8.9616	5.36164	-237.713	-12.4593	29.9969	-249.984	8.30027	3.10029	
5	0.0416667	-266.527	44.9481	7.68345	-256.18	71.9797	-7.5004	-245.348	97.5641	-30.428	-243.684	119.54	-39.9719	-234.271	20.7145	-60.6307	-215.427	22.9991	-85.2743	-205.988	26.7143	-107.043	-196.617	25.2896	-51.8837	-178.568	49.3993	-64.0732	-158.48	76.2064	-63.6863	-182.147	36.5836	-22.9361	-188.291	64.9391	-5.28338	-212.938	55.8443	15.2805	-176.36	32.751	-5.62376	-191.041	56.2649	8.97711	-214.052	37.6703	24.4608	-219.954	-9.6391	5.29432	-235.907	-14.1536	34.3039	-258.04	3.44802	4.00742	
6	0.05	-277.681	39.6322	4.57236	-268.581	65.1245	-16.2658	-260.338	85.6417	-37.532	-258.353	103.671	-54.1812	-248.051	4.0544	-66.309	-243.68	6.70771	-88.1066	-231.869	4.693	-113.458	-213.563	9.98518	-61.0127	-200.555	28.9494	-79.2823	-179.933	56.4295	-92.4957	-201.164	26.1038	-37.742	-200.524	56.8193	-24.5472	-227.302	50.8175	3.38303	-186.173	26.651	-17.9981	-203.03	52.277	-1.48616	-221.916	34.7134	15.6566	-228.441	-12.7265	3.90052	-238.881	-16.1182	37.1297	-264.591	-5.66997	8.32504	
7	0.0583333	-288.326	34.9282	9.3689	-278.926	56.754	-16.9383	-276.407	75.2296	-49.2492	-275.323	91.4137	-64.8313	-271.775	-11.6054	-62.4896	-269.438	-13.2001	-90.7512	-261.865	-18.7196	-112.354	-236.409	-5.76532	-64.8833	-223.243	9.18546	-87.3889	-208.055	33.8309	-111.328	-218.246	14.2108	-46.635	-213.628	45.4795	-35.8057	-233.35	45.4019	-6.57685	-200.94	18.2891	-30.1225	-213.323	43.7823	-16.4488	-232.529	27.9576	9.07532	-234.779	-20.9671	5.91792	-244.962	-18.0281	37.1937	-277.587	-10.688	11.5298	
8	0.0666667	-297.239	31.1455	7.9352	-289.044	47.4058	-22.4254	-286.48	59.5879	-52.4042	-285.992	72.1562	-77.1363	-299.104	-25.2199	-51.5961	-301.387	-33.9218	-82.2092	-303.203	-39.9213	-109.822	-265.162	-25.2494	-60.3647	-249.719	-14.723	-92.4444	-238.962	1.05142	-117.343	-238.399	-2.311	-51.9723	-232.088	28.734	-47.1249	-249.909	34.4831	-13.8051	-220.549	-2.08316	-35.4027	-228.115	29.8047	-27.0897	-243.397	22.6107	3.60596	-253.591	-28.2811	5.74615	-255.397	-19.8201	42.1526	-289.096	-12.5734	18.4909	
9	0.075	-301.1	31.6736	9.43425	-295.07	48.0333	-25.4086	-292.911	58.362	-55.4086	-285.907	63.2335	-78.3318	-325.248	-24.5577	-47.9333	-329.401	-33.9253	-71.4885	-335.786	-42.8351	-99.3951	-293.326	-34.1224	-60.7113	-283.776	-29.9375	-91.307	-269.648	-20.8489	-118.811	-262.647	-15.5209	-55.8871	-245.497	10.9338	-54.0785	-256.712	23.1902	-19.7024	-245.423	-19.3806	-38.9769	-239.987	14.9241	-30.4188	-254.016	12.9541	-2.20635	-272.125	-37.1969	7.38446	-271.582	-26.7374	38.6661	-304.628	-10.7458	21.7856	
10	0.0833333	-298.874	37.7272	6.14139	-286.205	48.7075	-25.454	-280.764	58.1144	-58.2067	-275.41	65.9781	-82.1383	-339.63	-9.45909	-48.9621	-350.354	-11.7838	-72.4832	-359.03	-20.3433	-100.874	-313.131	-28.2497	-62.8888	-304.779	-26.5174	-90.8811	-289.156	-25.9067	-119.853	-274.874	-24.1533	-55.1449	-255.317	0.855829	-56.1179	-262.249	15.3373	-20.1421	-262.872	-28.1497	-41.6548	-247.784	2.86367	-33.7102	-259.944	5.52248	-4.48755	-292.444	-37.6144	5.81167	-286.944	-27.6038	35.3447	-313.735	-4.92342	20.8067	
11	0.0916667	-279.453	42.5084	11.4835	-263.369	54.3855	-21.6311	-254.66	60.8791	-54.1011	-246.824	61.505	-76.3521	-338.821	27.7157	-49.1447	-348.823	30.6176	-74.3319	-357.901	29.0049	-96.7773	-324.01	-0.921803	-60.8061	-315.283	-3.47989	-93.6338	-302.186	-4.00242	-124.992	-289.76	-14.9966	-55.5779	-261.695	0.79836	-56.835	-258.994	9.88356	-21.2956	-275.998	-21.6958	-46.4171	-254.226	-4.53082	-35.2948	-261.715	1.15628	-1.37283	-312.021	-24.3845	2.27818	-300.248	-22.3484	35.7051	-313.44	16.4621	18.9166	
12	0.1	-256.348	41.0916	11.9335	-237.84	39.321	-18.4394	-222.153	46.0879	-50.4913	-212.875	47.6944	-72.1958	-310.024	68.3467	-44.61	-314.664	78.9631	-66.3634	-323.595	84.9806	-87.5288	-313.744	39.2467	-59.6593	-307.911	34.7276	-92.3665	-300.285	29.6166	-119.696	-293.567	3.66308	-57.1156	-259.897	4.26806	-54.1321	-257.838	7.44774	-18.72	-289.857	-13.2557	-45.4729	-259.06	-9.40403	-35.0381	-263.101	0.905183	-0.561987	-315.536	7.91938	0.590097	-305.198	-2.4849	36.8456	-296.444	34.1668	24.1149	
13	0.108333	-231.617	30.2933	17.3738	-214.583	26.3883	-17.3528	-202.46	26.8136	-49.759	-192.906	23.5267	-71.5129	-273.777	81.7821	-34.7617	-272.959	96.7367	-55.3287	-277.742	113.692	-80.1786	-290.501	62.587	-55.5565	-285.471	60.4064	-86.6151	-280.767	54.4568	-114.711	-283.874	22.3726	-55.4395	-260.424	4.55039	-54.4495	-253.084	5.50339	-18.4341	-286.645	5.58763	-45.5027	-260.365	-8.48266	-29.113	-261.485	1.70172	0.330272	-303.922	30.3908	4.15928	-299.636	16.9779	38.1492	-274.37	44.3877	31.0513	
14	0.116667	-213.752	22.3997	19.5423	-200.296	11.7909	-11.1693	-187.285	8.34171	-44.4726	-180.764	3.92109	-66.4299	-242.013	83.7636	-34.6053	-238.627	96.4133	-54.8698	-237.263	112.609	-77.8237	-262.719	68.5517	-48.9674	-259.725	65.7354	-82.0016	-258.702	56.1775	-116.912	-269.644	28.6331	-51.1955	-251.747	2.36139	-49.4597	-244.564	2.96701	-15.9549	-280.261	9.59292	-42.2411	-258.718	-9.31755	-29.4988	-255.966	0.376829	6.56299	-289.125	40.0895	10.2874	-282.609	26.1156	39.9804	-253.24	46.8231	30.9157	
15	0.125	-198.409	13.1978	22.1877	-186.985	0.313995	-9.50662	-173.379	-6.02466	-43.44	-165.602	-16.7854	-59.1077	-214.261	73.5203	-34.6321	-207.154	84.9915	-57.4854	-208.664	100.254	-83.8829	-242.514	60.2232	-49.2324	-236.067	54.2531	-85.0925	-236.846	44.492	-112.775	-255.098	23.5067	-47.7353	-239.751	-4.24576	-45.4801	-234.589	-4.34179	-9.54236	-268.168	7.4361	-37.929	-247.263	-12.8081	-23.3976	-243.093	-1.13208	8.37919	-266.969	42.9223	9.01925	-265.856	29.7887	43.3497	-231.194	47.4485	30.3753	
16	0.133333	-184.036	4.8291	27.6661	-171.572	-12.1051	-5.80314	-161.116	-23.7548	-33.0736	-151.411	-34.1219	-54.8786	-197.2	58.6657	-35.3837	-191.022	68.1898	-64.2652	-187.081	78.4449	-86.9279	-226.528	44.9511	-49.5619	-223.589	34.7647	-83.9071	-221.927	20.6396	-111.269	-236.824	10.1831	-45.237	-228.484	-20.1983	-37.2759	-222.699	-12.3929	0.194641	-252.666	-3.04985	-33.2018	-236.492	-23.3469	-16.7208	-232.447	-9.40781	12.0303	-252.184	36.5025	12.7612	-250.381	30.2835	43.4229	-217.102	41.3691	29.1822	
17	0.141667	-173.664	-2.65152	29.8413	-165.087	-24.9973	6.2165	-152.273	-41.2814	-21.6798	-141.384	-55.3401	-40.2825	-183.264	41.4393	-37.6163	-179.456	46.4753	-68.1474	-174.561	52.4593	-91.7328	-213.69	25.1873	-55.2597	-209.884	9.99417	-81.6325	-211.094	-13.2966	-109.865	-230.694	-7.84616	-42.1136	-221.042	-35.4104	-31.4235	-210.313	-21.9838	3.43973	-243.752	-14.1397	-27.8479	-227.629	-36.4231	-5.74371	-223.309	-20.1347	17.8166	-240.163	29.7168	9.50044	-242.875	25.7014	42.7163	-208.476	33.3198	29.3545	
18	0.15	-169.656	-3.03477	32.1308	-161.441	-28.3293	14.735	-142.882	-50.4076	-11.965	-135.76	-65.1436	-25.0759	-183.121	24.0648	-41.776	-176.376	23.8661	-70.1167	-175.532	24.044	-97.5956	-208.993	6.06623	-52.6163	-206.307	-20.7626	-79.5538	-203.595	-44.4662	-94.3022	-225.815	-23.5615	-35.9618	-214.045	-50.7777	-18.2913	-206.331	-29.6406	13.8439	-239.031	-30.8552	-20.1746	-218.12	-45.471	3.50208	-214.1	-26.0021	24.4503	-237.234	19.668	9.09279	-241.312	23.6679	43.7178	-207.212	27.4482	27.0487	
19	0.158333	-175.494	10.359	33.994	-153.637	-14.3678	21.901	-133.441	-34.6198	4.31521	-116.776	-50.0694	-4.91692	-191.666	14.7957	-50.6696	-183.893	9.18654	-71.0192	-180.076	1.63577	-99.4359	-207.581	-13.2128	-53.0123	-192.338	-38.5583	-67.2723	-183.381	-69.3027	-72.9377	-217.298	-42.093	-28.2711	-199.303	-55.4148	-9.67218	-197.729	-29.3646	20.125	-231.807	-45.5646	-11.8353	-208.492	-52.3086	13.1644	-209.948	-26.1497	32.9918	-244.351	10.0554	2.97536	-246.781	18.2788	40.8805	-212.495	32.5878	21.7645	
20	0.166667	-190.096	30.8949	32.4968	-157.084	12.4165	21.5592	-128.584	-1.84573	8.66342	-106.91	-11.6246	4.47576	-200.185	13.1039	-48.9953	-189.038	2.02664	-75.6734	-180.891	-7.52822	-100.389	-205.297	-20.3524	-46.0623	-177.924	-40.2046	-55.5682	-153.773	-66.3381	-50.6743	-205.471	-42.1366	-20.8251	-181.604	-46.4757	4.21994	-189.592	-18.8162	23.6424	-215.257	-49.5189	-3.36342	-193.809	-43.1448	21.5777	-202.796	-15.5881	35.001	-248.259	-2.94605	2.55915	-257.031	11.0247	32.031	-232.356	30.3948	10.8662	
21	0.175	-207.136	47.7205	22.8926	-174.281	42.4935	22.6959	-138.845	38.7818	10.8886	-118.395	35.8504	10.5794	-203.044	15.2668	-53.2284	-188.363	10.2572	-74.3721	-176.594	0.775893	-96.0143	-190.391	-13.2196	-44.5669	-158.729	-26.9275	-44.1836	-129.971	-35.4581	-35.8571	-189.912	-31.4139	-16.2464	-166.668	-22.9207	8.02684	-185.458	-1.24594	28.183	-193.605	-38.7891	2.70009	-180.877	-19.9695	26.8214	-201.207	-2.35121	37.6417	-246.019	-11.3833	0.119957	-263.803	1.26458	31.1355	-245.61	27.4718	6.47269	
22	0.183333	-224.192	56.3364	21.7099	-187.615	61.4029	15.806	-154.555	70.2103	7.49888	-131.598	78.9907	5.81319	-205.661	23.9555	-51.6052	-186.756	19.0159	-72.6864	-170.363	12.3808	-92.097	-182.674	-0.389294	-38.9573	-150.872	-4.42362	-36.3473	-114.136	-0.712444	-26.2886	-177.623	-11.5821	-12.8674	-158.174	0.885281	12.0064	-184.346	20.9537	28.0994	-178.117	-23.4038	9.22023	-175.186	1.86871	32.0462	-201.767	12.2892	40.911	-237.402	-17.526	2.22676	-262.362	-7.81341	29.8493	-252.133	22.8421	2.9451	
23	0.191667	-237.321	56.8387	17.0522	-206.339	74.2729	13.0544	-181.714	93.6999	6.21202	-160.335	109.011	-0.825045	-204.606	30.8451	-54.8254	-182.968	28.6692	-74.7523	-168.271	28.5648	-91.2371	-173.325	14.7498	-37.3432	-144.887	30.1586	-37.6982	-114.161	44.5904	-25.8704	-164.408	7.8935	-7.70183	-158.899	33.408	14.1811	-190.398	39.3609	28.81	-167.854	2.83411	9.86567	-174.793	27.5606	31.886	-204.019	25.3035	36.9066	-224.543	-14.1276	6.57979	-247.831	-14.4316	30.5232	-248.491	15.682	1.51536	
